<svg width="892" height="33" viewBox="0 0 892 33" fill="none" xmlns="http://www.w3.org/2000/svg">
<path d="M10.8571 6.5C10.8571 5.26864 11.3463 4.08771 12.217 3.217C13.0877 2.3463 14.2686 1.85714 15.5 1.85714C16.7314 1.85714 17.9123 2.3463 18.783 3.217C19.6537 4.08771 20.1429 5.26864 20.1429 6.5V9.08143H22V6.5C22 5.64641 21.8319 4.80117 21.5052 4.01256C21.1786 3.22394 20.6998 2.50739 20.0962 1.90381C19.4926 1.30023 18.7761 0.821439 17.9874 0.494783C17.1988 0.168128 16.3536 0 15.5 0C14.6464 0 13.8012 0.168128 13.0126 0.494783C12.2239 0.821439 11.5074 1.30023 10.9038 1.90381C10.3002 2.50739 9.82144 3.22394 9.49478 4.01256C9.16813 4.80117 9 5.64641 9 6.5V9.08143H10.8571V6.5Z" fill="#FF5722"/>
<path d="M21.75 9.91602V12.6839C21.75 12.9207 21.6559 13.1478 21.4885 13.3152C21.321 13.4827 21.0939 13.5767 20.8571 13.5767C20.6203 13.5767 20.3932 13.4827 20.2258 13.3152C20.0584 13.1478 19.9643 12.9207 19.9643 12.6839V9.91602H11.0357V12.6839C11.0357 12.9207 10.9416 13.1478 10.7742 13.3152C10.6068 13.4827 10.3797 13.5767 10.1429 13.5767C9.90606 13.5767 9.67895 13.4827 9.51151 13.3152C9.34407 13.1478 9.25 12.9207 9.25 12.6839V9.91602H3V27.7732C3 28.2468 3.18814 28.701 3.52302 29.0359C3.85791 29.3707 4.31211 29.5589 4.78571 29.5589H26.2143C26.6879 29.5589 27.1421 29.3707 27.477 29.0359C27.8119 28.701 28 28.2468 28 27.7732V9.91602H21.75Z" fill="#FF5722"/>
<path d="M31.17 15.108V13.92C31.17 12.708 31.482 11.874 32.106 11.418C32.73 10.95 33.606 10.716 34.734 10.716C35.55 10.716 37.05 10.86 39.234 11.148V12.228L34.734 12.048C34.59 12.036 34.464 12.03 34.356 12.03C33.744 12.03 33.282 12.162 32.97 12.426C32.658 12.678 32.502 13.176 32.502 13.92V15.108C32.502 15.852 32.646 16.332 32.934 16.548C33.234 16.764 33.702 16.872 34.338 16.872H36.894C38.766 16.872 39.702 17.904 39.702 19.968V21.192C39.702 21.804 39.6 22.314 39.396 22.722C39.192 23.13 38.904 23.436 38.532 23.64C38.16 23.832 37.782 23.964 37.398 24.036C37.014 24.108 36.57 24.144 36.066 24.144C35.646 24.144 34.902 24.09 33.834 23.982C32.778 23.874 32.022 23.778 31.566 23.694V22.614C32.886 22.746 34.386 22.812 36.066 22.812C37.602 22.812 38.37 22.272 38.37 21.192V19.968C38.37 19.404 38.262 18.972 38.046 18.672C37.83 18.36 37.446 18.204 36.894 18.204H34.374C33.69 18.204 33.12 18.12 32.664 17.952C32.22 17.784 31.896 17.538 31.692 17.214C31.488 16.89 31.35 16.572 31.278 16.26C31.206 15.936 31.17 15.552 31.17 15.108ZM41.5917 24V9.888H42.9237V15.558C42.9597 15.546 43.0917 15.474 43.3197 15.342C43.5477 15.198 43.6857 15.114 43.7337 15.09C43.7937 15.066 43.9257 15 44.1297 14.892C44.3337 14.772 44.4777 14.7 44.5617 14.676C44.6457 14.652 44.7837 14.604 44.9757 14.532C45.1677 14.46 45.3237 14.412 45.4437 14.388C45.5757 14.364 45.7317 14.34 45.9117 14.316C46.0917 14.292 46.2717 14.28 46.4517 14.28C47.3637 14.28 48.0837 14.58 48.6117 15.18C49.1397 15.78 49.4037 16.5 49.4037 17.34V24H48.0717V17.34C48.0717 16.764 47.9217 16.332 47.6217 16.044C47.3337 15.756 46.9437 15.612 46.4517 15.612C45.9957 15.612 45.5637 15.66 45.1557 15.756C44.7477 15.852 44.4177 15.954 44.1657 16.062C43.9257 16.158 43.5117 16.35 42.9237 16.638V24H41.5917ZM51.2027 19.356C51.2027 17.424 51.5087 16.11 52.1207 15.414C52.7327 14.706 53.8307 14.352 55.4147 14.352C57.0227 14.352 58.1267 14.712 58.7267 15.432C59.3267 16.14 59.6267 17.448 59.6267 19.356C59.6267 21.144 59.3267 22.38 58.7267 23.064C58.1267 23.748 57.0227 24.09 55.4147 24.09C53.8307 24.09 52.7327 23.736 52.1207 23.028C51.5087 22.32 51.2027 21.096 51.2027 19.356ZM52.5347 19.356C52.5347 20.136 52.5887 20.76 52.6967 21.228C52.8167 21.696 53.0147 22.038 53.2907 22.254C53.5787 22.47 53.8667 22.608 54.1547 22.668C54.4547 22.728 54.8747 22.758 55.4147 22.758C55.9667 22.758 56.3927 22.728 56.6927 22.668C57.0047 22.608 57.2927 22.47 57.5567 22.254C57.8327 22.026 58.0247 21.684 58.1327 21.228C58.2407 20.76 58.2947 20.136 58.2947 19.356C58.2947 18.504 58.2467 17.832 58.1507 17.34C58.0667 16.848 57.8927 16.482 57.6287 16.242C57.3647 15.99 57.0767 15.834 56.7647 15.774C56.4647 15.714 56.0147 15.684 55.4147 15.684C54.9587 15.684 54.5987 15.702 54.3347 15.738C54.0707 15.774 53.8067 15.858 53.5427 15.99C53.2787 16.122 53.0807 16.32 52.9487 16.584C52.8287 16.848 52.7267 17.208 52.6427 17.664C52.5707 18.108 52.5347 18.672 52.5347 19.356ZM61.6132 28.86V14.442H62.5672L62.9092 15.504C63.2092 15.288 63.7372 15.042 64.4932 14.766C65.2492 14.478 65.9032 14.334 66.4552 14.334C67.0792 14.334 67.6072 14.478 68.0392 14.766C68.4712 15.054 68.7952 15.45 69.0112 15.954C69.2272 16.446 69.3772 16.956 69.4612 17.484C69.5572 18 69.6052 18.564 69.6052 19.176C69.6052 19.872 69.5632 20.484 69.4792 21.012C69.4072 21.528 69.2632 22.044 69.0472 22.56C68.8432 23.064 68.5192 23.454 68.0752 23.73C67.6432 24.006 67.1032 24.144 66.4552 24.144C66.0112 24.144 65.4412 24.078 64.7452 23.946C64.0612 23.814 63.4492 23.64 62.9092 23.424V28.86H61.6132ZM62.9092 22.344C64.1092 22.656 65.2912 22.812 66.4552 22.812C67.0792 22.812 67.5352 22.554 67.8232 22.038C68.1232 21.522 68.2732 20.568 68.2732 19.176C68.2732 16.836 67.6672 15.666 66.4552 15.666C65.4472 15.666 64.2652 15.942 62.9092 16.494V22.344ZM71.94 21.786V13.164C71.94 12.36 72.138 11.772 72.534 11.4C72.93 11.016 73.44 10.824 74.064 10.824C74.088 10.824 74.112 10.824 74.136 10.824C74.16 10.824 74.184 10.824 74.208 10.824L79.896 11.112V12.156H74.208C73.92 12.156 73.698 12.216 73.542 12.336C73.398 12.444 73.314 12.558 73.29 12.678C73.278 12.786 73.272 12.948 73.272 13.164V16.764L79.176 16.944V18.006L73.272 18.186V21.786C73.272 22.002 73.302 22.182 73.362 22.326C73.422 22.458 73.512 22.554 73.632 22.614C73.752 22.662 73.854 22.692 73.938 22.704C74.034 22.716 74.166 22.722 74.334 22.722C74.334 22.722 74.34 22.722 74.352 22.722C74.364 22.722 74.376 22.722 74.388 22.722H79.896V23.748L74.388 24.054C74.34 24.054 74.292 24.054 74.244 24.054C74.196 24.066 74.148 24.072 74.1 24.072C73.8 24.072 73.53 24.042 73.29 23.982C73.05 23.91 72.822 23.796 72.606 23.64C72.402 23.472 72.24 23.232 72.12 22.92C72 22.608 71.94 22.23 71.94 21.786ZM81.4329 21.732V20.634C81.4329 19.902 81.6429 19.32 82.0629 18.888C82.4949 18.456 83.0829 18.24 83.8269 18.24C85.0149 18.24 85.9989 18.24 86.7789 18.24C87.1029 18.24 87.3549 18.24 87.5349 18.24C87.7269 18.24 87.8229 18.24 87.8229 18.24C87.8229 17.892 87.8229 17.598 87.8229 17.358C87.8229 17.31 87.8229 17.268 87.8229 17.232C87.8229 17.196 87.8229 17.166 87.8229 17.142C87.8229 17.106 87.8229 17.082 87.8229 17.07C87.8229 17.046 87.8229 17.034 87.8229 17.034C87.8229 16.05 87.3309 15.558 86.3469 15.558C85.2669 15.558 83.7309 15.63 81.7389 15.774V14.802C82.9509 14.466 84.5049 14.286 86.4009 14.262C86.4129 14.262 86.4309 14.262 86.4549 14.262C87.2469 14.262 87.8949 14.496 88.3989 14.964C88.9029 15.42 89.1549 16.11 89.1549 17.034V24H88.1649L87.8229 22.848L87.5529 22.974C87.3849 23.058 87.1569 23.166 86.8689 23.298C86.5809 23.418 86.2689 23.544 85.9329 23.676C85.5969 23.796 85.2369 23.898 84.8529 23.982C84.4689 24.066 84.1269 24.108 83.8269 24.108C83.1429 24.108 82.5729 23.898 82.1169 23.478C81.6609 23.058 81.4329 22.476 81.4329 21.732ZM82.7649 21.642C82.7649 22.398 83.1189 22.776 83.8269 22.776C84.2589 22.776 84.8049 22.698 85.4649 22.542C86.1369 22.386 86.7009 22.236 87.1569 22.092L87.8229 21.858V19.284L83.8269 19.572C83.4669 19.608 83.1969 19.734 83.0169 19.95C82.8489 20.166 82.7649 20.43 82.7649 20.742V21.642ZM90.5869 15.774V14.442H97.7149V15.774L92.6029 22.65H97.7149C97.7149 22.65 97.7149 22.77 97.7149 23.01C97.7149 23.118 97.7149 23.256 97.7149 23.424C97.7149 23.592 97.7149 23.724 97.7149 23.82V23.982H90.8569V22.65L96.0589 15.774H90.5869ZM98.6339 14.442H100.092L102.414 21.912C102.498 22.2 102.618 22.398 102.774 22.506C102.942 22.614 103.116 22.668 103.296 22.668C103.5 22.668 103.602 22.65 103.602 22.614L106.338 14.442H107.832L103.62 27.024L102.27 28.86H101.442L103.134 24C102.102 24 101.382 23.34 100.974 22.02L98.6339 14.442Z" fill="white"/>
</svg>
