<svg width="271" height="271" viewBox="0 0 271 271" fill="none" xmlns="http://www.w3.org/2000/svg">
<rect x="2" y="2" width="267" height="267" rx="133.5" fill="#D00713"/>
<rect x="2" y="2" width="267" height="267" rx="133.5" stroke="white" stroke-width="4"/>
<path d="M51.9625 99.0125H70.975V105.837H51.9625V99.0125ZM112.305 117.387C113.18 117.387 113.868 117.65 114.368 118.175C114.868 118.675 115.118 119.325 115.118 120.125V125H78.5928V122.262C78.5928 121.712 78.7053 121.137 78.9303 120.537C79.1553 119.937 79.5178 119.387 80.0178 118.887L96.8178 102.05C98.2428 100.625 99.5053 99.2625 100.605 97.9625C101.73 96.6625 102.68 95.3625 103.455 94.0625C104.255 92.7625 104.855 91.45 105.255 90.125C105.68 88.775 105.893 87.3625 105.893 85.8875C105.893 84.4625 105.668 83.2125 105.218 82.1375C104.793 81.0375 104.193 80.1375 103.418 79.4375C102.668 78.7125 101.755 78.175 100.68 77.825C99.6303 77.45 98.4678 77.2625 97.1928 77.2625C95.9678 77.2625 94.8303 77.4375 93.7803 77.7875C92.7553 78.1375 91.8303 78.625 91.0053 79.25C90.2053 79.875 89.5303 80.625 88.9803 81.5C88.4553 82.35 88.0678 83.2875 87.8178 84.3125C87.4428 85.3375 86.9553 86.025 86.3553 86.375C85.7803 86.725 84.9303 86.8 83.8053 86.6L79.5678 85.85C79.9428 83.3 80.6428 81.0625 81.6678 79.1375C82.7178 77.2125 84.0303 75.6125 85.6053 74.3375C87.1803 73.0375 88.9803 72.0625 91.0053 71.4125C93.0553 70.7375 95.2678 70.4 97.6428 70.4C100.043 70.4 102.243 70.7625 104.243 71.4875C106.268 72.1875 108.005 73.2 109.455 74.525C110.93 75.825 112.08 77.4125 112.905 79.2875C113.73 81.1625 114.143 83.275 114.143 85.625C114.143 87.625 113.843 89.475 113.243 91.175C112.668 92.875 111.88 94.5 110.88 96.05C109.88 97.6 108.705 99.1125 107.355 100.587C106.03 102.037 104.63 103.512 103.155 105.012L90.1053 118.362C91.1803 118.062 92.2553 117.825 93.3303 117.65C94.4303 117.475 95.4678 117.387 96.4428 117.387H112.305ZM160.349 98C160.349 102.725 159.836 106.812 158.811 110.262C157.811 113.712 156.424 116.575 154.649 118.85C152.874 121.125 150.786 122.812 148.386 123.912C145.986 125.013 143.399 125.563 140.624 125.563C137.849 125.563 135.261 125.013 132.861 123.912C130.461 122.812 128.374 121.125 126.599 118.85C124.849 116.575 123.474 113.712 122.474 110.262C121.474 106.812 120.974 102.725 120.974 98C120.974 93.275 121.474 89.1875 122.474 85.7375C123.474 82.2625 124.849 79.4 126.599 77.15C128.374 74.875 130.461 73.1875 132.861 72.0875C135.261 70.9625 137.849 70.4 140.624 70.4C143.399 70.4 145.986 70.9625 148.386 72.0875C150.786 73.1875 152.874 74.875 154.649 77.15C156.424 79.4 157.811 82.2625 158.811 85.7375C159.836 89.1875 160.349 93.275 160.349 98ZM152.024 98C152.024 94 151.699 90.675 151.049 88.025C150.424 85.35 149.586 83.2125 148.536 81.6125C147.486 80.0125 146.274 78.875 144.899 78.2C143.524 77.525 142.099 77.1875 140.624 77.1875C139.124 77.1875 137.686 77.525 136.311 78.2C134.961 78.875 133.761 80.0125 132.711 81.6125C131.661 83.2125 130.824 85.35 130.199 88.025C129.574 90.675 129.261 94 129.261 98C129.261 102 129.574 105.337 130.199 108.012C130.824 110.662 131.661 112.787 132.711 114.387C133.761 115.987 134.961 117.125 136.311 117.8C137.686 118.475 139.124 118.812 140.624 118.812C142.099 118.812 143.524 118.475 144.899 117.8C146.274 117.125 147.486 115.987 148.536 114.387C149.586 112.787 150.424 110.662 151.049 108.012C151.699 105.337 152.024 102 152.024 98ZM189.942 84.05C189.942 86.125 189.604 87.9875 188.929 89.6375C188.279 91.2875 187.392 92.7 186.267 93.875C185.142 95.025 183.842 95.9125 182.367 96.5375C180.892 97.1375 179.342 97.4375 177.717 97.4375C175.967 97.4375 174.342 97.1375 172.842 96.5375C171.367 95.9125 170.079 95.025 168.979 93.875C167.904 92.7 167.054 91.2875 166.429 89.6375C165.804 87.9875 165.492 86.125 165.492 84.05C165.492 81.925 165.804 80.025 166.429 78.35C167.054 76.65 167.904 75.225 168.979 74.075C170.079 72.9 171.367 72 172.842 71.375C174.342 70.75 175.967 70.4375 177.717 70.4375C179.467 70.4375 181.079 70.75 182.554 71.375C184.054 72 185.342 72.9 186.417 74.075C187.517 75.225 188.379 76.65 189.004 78.35C189.629 80.025 189.942 81.925 189.942 84.05ZM183.717 84.05C183.717 82.525 183.554 81.2375 183.229 80.1875C182.929 79.1125 182.504 78.25 181.954 77.6C181.429 76.925 180.792 76.45 180.042 76.175C179.317 75.875 178.542 75.725 177.717 75.725C176.867 75.725 176.079 75.875 175.354 76.175C174.629 76.45 174.004 76.925 173.479 77.6C172.954 78.25 172.542 79.1125 172.242 80.1875C171.942 81.2375 171.792 82.525 171.792 84.05C171.792 85.55 171.942 86.8125 172.242 87.8375C172.542 88.8625 172.954 89.7 173.479 90.35C174.004 90.975 174.629 91.425 175.354 91.7C176.079 91.975 176.867 92.1125 177.717 92.1125C178.542 92.1125 179.317 91.975 180.042 91.7C180.792 91.425 181.429 90.975 181.954 90.35C182.504 89.7 182.929 88.8625 183.229 87.8375C183.554 86.8125 183.717 85.55 183.717 84.05ZM208.467 72.3125C208.742 71.9625 209.067 71.6625 209.442 71.4125C209.842 71.1375 210.392 71 211.092 71H216.904L177.117 123.763C176.842 124.112 176.504 124.412 176.104 124.662C175.704 124.887 175.217 125 174.642 125H168.642L208.467 72.3125ZM220.167 112.287C220.167 114.362 219.829 116.225 219.154 117.875C218.479 119.525 217.579 120.925 216.454 122.075C215.329 123.225 214.029 124.112 212.554 124.737C211.079 125.338 209.529 125.638 207.904 125.638C206.154 125.638 204.529 125.338 203.029 124.737C201.554 124.112 200.267 123.225 199.167 122.075C198.092 120.925 197.242 119.525 196.617 117.875C196.017 116.225 195.717 114.362 195.717 112.287C195.717 110.162 196.017 108.262 196.617 106.587C197.242 104.887 198.092 103.45 199.167 102.275C200.267 101.1 201.554 100.212 203.029 99.6125C204.529 98.9875 206.154 98.675 207.904 98.675C209.654 98.675 211.279 98.9875 212.779 99.6125C214.279 100.212 215.567 101.1 216.642 102.275C217.742 103.45 218.604 104.887 219.229 106.587C219.854 108.262 220.167 110.162 220.167 112.287ZM213.942 112.287C213.942 110.762 213.779 109.475 213.454 108.425C213.154 107.35 212.729 106.487 212.179 105.837C211.629 105.162 210.979 104.687 210.229 104.412C209.504 104.112 208.729 103.962 207.904 103.962C207.079 103.962 206.304 104.112 205.579 104.412C204.854 104.687 204.217 105.162 203.667 105.837C203.142 106.487 202.729 107.35 202.429 108.425C202.129 109.475 201.979 110.762 201.979 112.287C201.979 113.787 202.129 115.05 202.429 116.075C202.729 117.1 203.142 117.937 203.667 118.587C204.217 119.212 204.854 119.662 205.579 119.937C206.304 120.212 207.079 120.35 207.904 120.35C208.729 120.35 209.504 120.212 210.229 119.937C210.979 119.662 211.629 119.212 212.179 118.587C212.729 117.937 213.154 117.1 213.454 116.075C213.779 115.05 213.942 113.787 213.942 112.287Z" fill="white"/>
<g clip-path="url(#clip0_205_469)">
<path d="M95.868 169.432C95.9693 169.432 96.0573 169.472 96.132 169.552L96.876 170.36C96.4067 170.925 95.8307 171.363 95.148 171.672C94.4653 171.976 93.6493 172.128 92.7 172.128C91.8573 172.128 91.0947 171.984 90.412 171.696C89.7347 171.403 89.156 170.997 88.676 170.48C88.196 169.957 87.8253 169.336 87.564 168.616C87.308 167.896 87.18 167.104 87.18 166.24C87.18 165.376 87.316 164.584 87.588 163.864C87.8653 163.139 88.252 162.517 88.748 162C89.2493 161.477 89.8467 161.072 90.54 160.784C91.2387 160.496 92.0067 160.352 92.844 160.352C93.676 160.352 94.4093 160.488 95.044 160.76C95.684 161.027 96.2387 161.384 96.708 161.832L96.092 162.704C96.0493 162.763 95.9987 162.813 95.94 162.856C95.8813 162.899 95.8013 162.92 95.7 162.92C95.5933 162.92 95.4707 162.872 95.332 162.776C95.1987 162.675 95.0253 162.565 94.812 162.448C94.604 162.325 94.34 162.216 94.02 162.12C93.7053 162.019 93.3107 161.968 92.836 161.968C92.2867 161.968 91.7827 162.064 91.324 162.256C90.8653 162.448 90.4707 162.728 90.14 163.096C89.8093 163.464 89.5507 163.912 89.364 164.44C89.1827 164.968 89.092 165.568 89.092 166.24C89.092 166.917 89.188 167.523 89.38 168.056C89.572 168.584 89.836 169.032 90.172 169.4C90.508 169.763 90.9027 170.04 91.356 170.232C91.8093 170.424 92.2973 170.52 92.82 170.52C93.14 170.52 93.4253 170.504 93.676 170.472C93.932 170.435 94.1667 170.379 94.38 170.304C94.5933 170.224 94.7933 170.125 94.98 170.008C95.172 169.891 95.3613 169.747 95.548 169.576C95.6547 169.48 95.7613 169.432 95.868 169.432ZM101.529 163.712C102.132 163.712 102.676 163.811 103.161 164.008C103.652 164.205 104.068 164.485 104.409 164.848C104.756 165.211 105.022 165.651 105.209 166.168C105.396 166.685 105.489 167.267 105.489 167.912C105.489 168.557 105.396 169.139 105.209 169.656C105.022 170.173 104.756 170.616 104.409 170.984C104.068 171.347 103.652 171.627 103.161 171.824C102.676 172.021 102.132 172.12 101.529 172.12C100.921 172.12 100.372 172.021 99.8811 171.824C99.3958 171.627 98.9798 171.347 98.6331 170.984C98.2865 170.616 98.0198 170.173 97.8331 169.656C97.6465 169.139 97.5531 168.557 97.5531 167.912C97.5531 167.267 97.6465 166.685 97.8331 166.168C98.0198 165.651 98.2865 165.211 98.6331 164.848C98.9798 164.485 99.3958 164.205 99.8811 164.008C100.372 163.811 100.921 163.712 101.529 163.712ZM101.529 170.776C102.265 170.776 102.812 170.531 103.169 170.04C103.532 169.544 103.713 168.837 103.713 167.92C103.713 167.003 103.532 166.296 103.169 165.8C102.812 165.299 102.265 165.048 101.529 165.048C100.782 165.048 100.228 165.299 99.8651 165.8C99.5025 166.296 99.3211 167.003 99.3211 167.92C99.3211 168.837 99.5025 169.544 99.8651 170.04C100.228 170.531 100.782 170.776 101.529 170.776ZM114.022 163.84V172H112.982C112.752 172 112.606 171.891 112.542 171.672L112.414 170.912C112.243 171.093 112.062 171.259 111.87 171.408C111.683 171.557 111.483 171.685 111.27 171.792C111.056 171.899 110.827 171.981 110.582 172.04C110.342 172.099 110.083 172.128 109.806 172.128C109.358 172.128 108.963 172.053 108.622 171.904C108.28 171.755 107.992 171.544 107.758 171.272C107.528 171 107.355 170.675 107.238 170.296C107.12 169.912 107.062 169.491 107.062 169.032V163.84H108.782V169.032C108.782 169.581 108.907 170.008 109.158 170.312C109.414 170.616 109.8 170.768 110.318 170.768C110.696 170.768 111.048 170.683 111.374 170.512C111.704 170.336 112.014 170.096 112.302 169.792V163.84H114.022ZM117.831 169.952C118.071 170.261 118.332 170.48 118.615 170.608C118.903 170.731 119.22 170.792 119.567 170.792C120.239 170.792 120.761 170.547 121.135 170.056C121.513 169.565 121.703 168.835 121.703 167.864C121.703 167.363 121.66 166.936 121.575 166.584C121.489 166.227 121.367 165.936 121.207 165.712C121.047 165.488 120.852 165.325 120.623 165.224C120.393 165.123 120.135 165.072 119.847 165.072C119.409 165.072 119.031 165.168 118.711 165.36C118.396 165.547 118.103 165.816 117.831 166.168V169.952ZM117.743 165.024C118.084 164.624 118.471 164.301 118.903 164.056C119.34 163.811 119.847 163.688 120.423 163.688C120.881 163.688 121.297 163.781 121.671 163.968C122.044 164.149 122.364 164.416 122.631 164.768C122.897 165.12 123.103 165.557 123.247 166.08C123.396 166.597 123.47 167.192 123.47 167.864C123.47 168.467 123.388 169.029 123.223 169.552C123.063 170.069 122.831 170.52 122.527 170.904C122.223 171.283 121.855 171.581 121.423 171.8C120.991 172.013 120.503 172.12 119.959 172.12C119.479 172.12 119.071 172.043 118.735 171.888C118.404 171.733 118.103 171.52 117.831 171.248V174.712H116.111V163.84H117.151C117.385 163.84 117.535 163.949 117.599 164.168L117.743 165.024ZM128.67 163.712C129.272 163.712 129.816 163.811 130.302 164.008C130.792 164.205 131.208 164.485 131.55 164.848C131.896 165.211 132.163 165.651 132.35 166.168C132.536 166.685 132.63 167.267 132.63 167.912C132.63 168.557 132.536 169.139 132.35 169.656C132.163 170.173 131.896 170.616 131.55 170.984C131.208 171.347 130.792 171.627 130.302 171.824C129.816 172.021 129.272 172.12 128.67 172.12C128.062 172.12 127.512 172.021 127.022 171.824C126.536 171.627 126.12 171.347 125.774 170.984C125.427 170.616 125.16 170.173 124.974 169.656C124.787 169.139 124.694 168.557 124.694 167.912C124.694 167.267 124.787 166.685 124.974 166.168C125.16 165.651 125.427 165.211 125.774 164.848C126.12 164.485 126.536 164.205 127.022 164.008C127.512 163.811 128.062 163.712 128.67 163.712ZM128.67 170.776C129.406 170.776 129.952 170.531 130.31 170.04C130.672 169.544 130.854 168.837 130.854 167.92C130.854 167.003 130.672 166.296 130.31 165.8C129.952 165.299 129.406 165.048 128.67 165.048C127.923 165.048 127.368 165.299 127.006 165.8C126.643 166.296 126.462 167.003 126.462 167.92C126.462 168.837 126.643 169.544 127.006 170.04C127.368 170.531 127.923 170.776 128.67 170.776ZM135.89 164.92C136.066 164.739 136.248 164.576 136.434 164.432C136.626 164.283 136.829 164.155 137.042 164.048C137.256 163.941 137.482 163.859 137.722 163.8C137.962 163.741 138.224 163.712 138.506 163.712C138.954 163.712 139.346 163.787 139.682 163.936C140.024 164.085 140.309 164.296 140.538 164.568C140.773 164.84 140.949 165.168 141.066 165.552C141.184 165.931 141.242 166.349 141.242 166.808V172H139.53V166.808C139.53 166.259 139.402 165.832 139.146 165.528C138.896 165.224 138.512 165.072 137.994 165.072C137.61 165.072 137.253 165.16 136.922 165.336C136.597 165.512 136.29 165.752 136.002 166.056V172H134.282V163.84H135.322C135.557 163.84 135.706 163.949 135.77 164.168L135.89 164.92ZM153.004 165.44C152.95 165.509 152.9 165.563 152.852 165.6C152.804 165.637 152.734 165.656 152.644 165.656C152.553 165.656 152.457 165.624 152.356 165.56C152.26 165.496 152.142 165.427 152.004 165.352C151.87 165.272 151.708 165.2 151.516 165.136C151.324 165.072 151.084 165.04 150.796 165.04C150.422 165.04 150.094 165.107 149.812 165.24C149.534 165.373 149.3 165.565 149.108 165.816C148.921 166.061 148.78 166.363 148.684 166.72C148.593 167.072 148.548 167.469 148.548 167.912C148.548 168.371 148.598 168.779 148.7 169.136C148.801 169.493 148.945 169.795 149.132 170.04C149.324 170.285 149.553 170.472 149.82 170.6C150.092 170.728 150.396 170.792 150.732 170.792C151.062 170.792 151.332 170.752 151.54 170.672C151.748 170.592 151.921 170.504 152.06 170.408C152.198 170.312 152.316 170.224 152.412 170.144C152.513 170.064 152.62 170.024 152.732 170.024C152.87 170.024 152.977 170.077 153.052 170.184L153.54 170.816C153.342 171.056 153.124 171.259 152.884 171.424C152.644 171.589 152.39 171.725 152.124 171.832C151.857 171.933 151.58 172.005 151.292 172.048C151.004 172.096 150.713 172.12 150.42 172.12C149.913 172.12 149.438 172.027 148.996 171.84C148.558 171.648 148.174 171.373 147.844 171.016C147.518 170.653 147.26 170.213 147.068 169.696C146.881 169.173 146.788 168.579 146.788 167.912C146.788 167.309 146.873 166.752 147.044 166.24C147.214 165.723 147.462 165.277 147.788 164.904C148.118 164.531 148.526 164.24 149.012 164.032C149.497 163.819 150.057 163.712 150.692 163.712C151.284 163.712 151.804 163.808 152.252 164C152.705 164.192 153.108 164.464 153.46 164.816L153.004 165.44ZM158.31 163.712C158.913 163.712 159.457 163.811 159.942 164.008C160.433 164.205 160.849 164.485 161.19 164.848C161.537 165.211 161.804 165.651 161.99 166.168C162.177 166.685 162.27 167.267 162.27 167.912C162.27 168.557 162.177 169.139 161.99 169.656C161.804 170.173 161.537 170.616 161.19 170.984C160.849 171.347 160.433 171.627 159.942 171.824C159.457 172.021 158.913 172.12 158.31 172.12C157.702 172.12 157.153 172.021 156.662 171.824C156.177 171.627 155.761 171.347 155.414 170.984C155.068 170.616 154.801 170.173 154.614 169.656C154.428 169.139 154.334 168.557 154.334 167.912C154.334 167.267 154.428 166.685 154.614 166.168C154.801 165.651 155.068 165.211 155.414 164.848C155.761 164.485 156.177 164.205 156.662 164.008C157.153 163.811 157.702 163.712 158.31 163.712ZM158.31 170.776C159.046 170.776 159.593 170.531 159.95 170.04C160.313 169.544 160.494 168.837 160.494 167.92C160.494 167.003 160.313 166.296 159.95 165.8C159.593 165.299 159.046 165.048 158.31 165.048C157.564 165.048 157.009 165.299 156.646 165.8C156.284 166.296 156.102 167.003 156.102 167.92C156.102 168.837 156.284 169.544 156.646 170.04C157.009 170.531 157.564 170.776 158.31 170.776ZM169.131 165.848C168.891 165.539 168.627 165.323 168.339 165.2C168.051 165.077 167.739 165.016 167.403 165.016C166.731 165.016 166.206 165.264 165.827 165.76C165.448 166.251 165.259 166.979 165.259 167.944C165.259 168.445 165.302 168.875 165.387 169.232C165.472 169.584 165.595 169.872 165.755 170.096C165.915 170.32 166.11 170.483 166.339 170.584C166.568 170.685 166.827 170.736 167.115 170.736C167.552 170.736 167.928 170.643 168.243 170.456C168.563 170.264 168.859 169.995 169.131 169.648V165.848ZM170.851 160.16V172H169.811C169.582 172 169.435 171.891 169.371 171.672L169.219 170.784C168.878 171.184 168.488 171.507 168.051 171.752C167.619 171.997 167.115 172.12 166.539 172.12C166.08 172.12 165.664 172.029 165.291 171.848C164.918 171.661 164.598 171.392 164.331 171.04C164.064 170.688 163.856 170.253 163.707 169.736C163.563 169.213 163.491 168.616 163.491 167.944C163.491 167.336 163.571 166.773 163.731 166.256C163.896 165.739 164.131 165.291 164.435 164.912C164.739 164.528 165.107 164.229 165.539 164.016C165.976 163.797 166.464 163.688 167.003 163.688C167.483 163.688 167.891 163.765 168.227 163.92C168.563 164.069 168.864 164.28 169.131 164.552V160.16H170.851ZM178.306 167C178.306 166.712 178.264 166.445 178.178 166.2C178.098 165.949 177.978 165.733 177.818 165.552C177.658 165.365 177.458 165.221 177.218 165.12C176.984 165.013 176.712 164.96 176.402 164.96C175.778 164.96 175.288 165.139 174.93 165.496C174.573 165.853 174.346 166.355 174.25 167H178.306ZM174.202 168.056C174.224 168.52 174.296 168.923 174.418 169.264C174.541 169.6 174.704 169.88 174.906 170.104C175.114 170.328 175.36 170.496 175.642 170.608C175.93 170.715 176.25 170.768 176.602 170.768C176.938 170.768 177.229 170.731 177.474 170.656C177.72 170.576 177.933 170.491 178.114 170.4C178.296 170.304 178.45 170.219 178.578 170.144C178.706 170.064 178.824 170.024 178.93 170.024C179.069 170.024 179.176 170.077 179.25 170.184L179.738 170.816C179.536 171.056 179.306 171.259 179.05 171.424C178.794 171.589 178.522 171.725 178.234 171.832C177.946 171.933 177.65 172.005 177.346 172.048C177.042 172.096 176.746 172.12 176.458 172.12C175.893 172.12 175.368 172.027 174.882 171.84C174.402 171.648 173.984 171.368 173.626 171C173.274 170.632 172.997 170.176 172.794 169.632C172.597 169.088 172.498 168.461 172.498 167.752C172.498 167.187 172.586 166.659 172.762 166.168C172.944 165.677 173.2 165.251 173.53 164.888C173.866 164.525 174.272 164.24 174.746 164.032C175.226 163.819 175.768 163.712 176.37 163.712C176.872 163.712 177.336 163.795 177.762 163.96C178.189 164.12 178.557 164.357 178.866 164.672C179.176 164.987 179.416 165.373 179.586 165.832C179.762 166.285 179.85 166.803 179.85 167.384C179.85 167.651 179.821 167.829 179.762 167.92C179.704 168.011 179.597 168.056 179.442 168.056H174.202ZM181.326 171.008C181.326 170.853 181.353 170.709 181.406 170.576C181.465 170.437 181.542 170.317 181.638 170.216C181.74 170.115 181.857 170.035 181.99 169.976C182.129 169.917 182.276 169.888 182.43 169.888C182.585 169.888 182.729 169.917 182.862 169.976C183.001 170.035 183.121 170.115 183.222 170.216C183.324 170.317 183.404 170.437 183.462 170.576C183.521 170.709 183.55 170.853 183.55 171.008C183.55 171.168 183.521 171.315 183.462 171.448C183.404 171.581 183.324 171.699 183.222 171.8C183.121 171.901 183.001 171.979 182.862 172.032C182.729 172.091 182.585 172.12 182.43 172.12C182.276 172.12 182.129 172.091 181.99 172.032C181.857 171.979 181.74 171.901 181.638 171.8C181.542 171.699 181.465 171.581 181.406 171.448C181.353 171.315 181.326 171.168 181.326 171.008ZM181.326 165.176C181.326 165.021 181.353 164.877 181.406 164.744C181.465 164.605 181.542 164.485 181.638 164.384C181.74 164.283 181.857 164.203 181.99 164.144C182.129 164.085 182.276 164.056 182.43 164.056C182.585 164.056 182.729 164.085 182.862 164.144C183.001 164.203 183.121 164.283 183.222 164.384C183.324 164.485 183.404 164.605 183.462 164.744C183.521 164.877 183.55 165.021 183.55 165.176C183.55 165.336 183.521 165.483 183.462 165.616C183.404 165.749 183.324 165.867 183.222 165.968C183.121 166.069 183.001 166.149 182.862 166.208C182.729 166.261 182.585 166.288 182.43 166.288C182.276 166.288 182.129 166.261 181.99 166.208C181.857 166.149 181.74 166.069 181.638 165.968C181.542 165.867 181.465 165.749 181.406 165.616C181.353 165.483 181.326 165.336 181.326 165.176Z" fill="white"/>
<path d="M91.016 185.96L81.672 209H78.296L68.952 185.96H71.944C72.2747 185.96 72.5413 186.045 72.744 186.216C72.9467 186.376 73.1013 186.579 73.208 186.824L79.144 201.848C79.464 202.691 79.7573 203.661 80.024 204.76C80.1413 204.216 80.264 203.699 80.392 203.208C80.5307 202.717 80.68 202.264 80.84 201.848L86.76 186.824C86.8453 186.611 86.9947 186.413 87.208 186.232C87.4213 186.051 87.688 185.96 88.008 185.96H91.016ZM104.116 200.36L100.948 191.944C100.692 191.293 100.43 190.467 100.164 189.464C100.046 189.965 99.9182 190.429 99.7795 190.856C99.6408 191.272 99.5128 191.64 99.3955 191.96L96.2275 200.36H104.116ZM111.204 209H108.308C107.977 209 107.71 208.92 107.508 208.76C107.305 208.589 107.15 208.381 107.044 208.136L105.124 203.048H95.2035L93.2835 208.136C93.1982 208.349 93.0488 208.547 92.8355 208.728C92.6222 208.909 92.3555 209 92.0355 209H89.1395L98.2755 185.96H102.068L111.204 209ZM127.204 205.864V209H113.892V185.96H117.636V205.864H127.204ZM143.432 205.752C143.805 205.752 144.098 205.864 144.312 206.088C144.525 206.301 144.632 206.579 144.632 206.92V209H129.048V207.832C129.048 207.597 129.096 207.352 129.192 207.096C129.288 206.84 129.442 206.605 129.656 206.392L136.824 199.208C137.432 198.6 137.97 198.019 138.44 197.464C138.92 196.909 139.325 196.355 139.656 195.8C139.997 195.245 140.253 194.685 140.424 194.12C140.605 193.544 140.696 192.941 140.696 192.312C140.696 191.704 140.6 191.171 140.408 190.712C140.226 190.243 139.97 189.859 139.64 189.56C139.32 189.251 138.93 189.021 138.472 188.872C138.024 188.712 137.528 188.632 136.984 188.632C136.461 188.632 135.976 188.707 135.528 188.856C135.09 189.005 134.696 189.213 134.344 189.48C134.002 189.747 133.714 190.067 133.48 190.44C133.256 190.803 133.09 191.203 132.984 191.64C132.824 192.077 132.616 192.371 132.36 192.52C132.114 192.669 131.752 192.701 131.272 192.616L129.464 192.296C129.624 191.208 129.922 190.253 130.36 189.432C130.808 188.611 131.368 187.928 132.04 187.384C132.712 186.829 133.48 186.413 134.344 186.136C135.218 185.848 136.162 185.704 137.176 185.704C138.2 185.704 139.138 185.859 139.992 186.168C140.856 186.467 141.597 186.899 142.216 187.464C142.845 188.019 143.336 188.696 143.688 189.496C144.039 190.296 144.215 191.197 144.215 192.2C144.215 193.053 144.088 193.843 143.832 194.568C143.586 195.293 143.25 195.987 142.824 196.648C142.397 197.309 141.896 197.955 141.32 198.584C140.754 199.203 140.157 199.832 139.528 200.472L133.96 206.168C134.418 206.04 134.877 205.939 135.336 205.864C135.805 205.789 136.248 205.752 136.664 205.752H143.432ZM163.93 197.48C163.93 199.496 163.711 201.24 163.274 202.712C162.847 204.184 162.255 205.405 161.498 206.376C160.741 207.347 159.85 208.067 158.826 208.536C157.802 209.005 156.698 209.24 155.514 209.24C154.33 209.24 153.226 209.005 152.202 208.536C151.178 208.067 150.287 207.347 149.53 206.376C148.783 205.405 148.197 204.184 147.77 202.712C147.343 201.24 147.13 199.496 147.13 197.48C147.13 195.464 147.343 193.72 147.77 192.248C148.197 190.765 148.783 189.544 149.53 188.584C150.287 187.613 151.178 186.893 152.202 186.424C153.226 185.944 154.33 185.704 155.514 185.704C156.698 185.704 157.802 185.944 158.826 186.424C159.85 186.893 160.741 187.613 161.498 188.584C162.255 189.544 162.847 190.765 163.274 192.248C163.711 193.72 163.93 195.464 163.93 197.48ZM160.378 197.48C160.378 195.773 160.239 194.355 159.962 193.224C159.695 192.083 159.338 191.171 158.89 190.488C158.442 189.805 157.925 189.32 157.338 189.032C156.751 188.744 156.143 188.6 155.514 188.6C154.874 188.6 154.261 188.744 153.674 189.032C153.098 189.32 152.586 189.805 152.138 190.488C151.69 191.171 151.333 192.083 151.066 193.224C150.799 194.355 150.666 195.773 150.666 197.48C150.666 199.187 150.799 200.611 151.066 201.752C151.333 202.883 151.69 203.789 152.138 204.472C152.586 205.155 153.098 205.64 153.674 205.928C154.261 206.216 154.874 206.36 155.514 206.36C156.143 206.36 156.751 206.216 157.338 205.928C157.925 205.64 158.442 205.155 158.89 204.472C159.338 203.789 159.695 202.883 159.962 201.752C160.239 200.611 160.378 199.187 160.378 197.48ZM180.557 205.752C180.93 205.752 181.223 205.864 181.437 206.088C181.65 206.301 181.757 206.579 181.757 206.92V209H166.173V207.832C166.173 207.597 166.221 207.352 166.317 207.096C166.413 206.84 166.567 206.605 166.781 206.392L173.949 199.208C174.557 198.6 175.095 198.019 175.565 197.464C176.045 196.909 176.45 196.355 176.781 195.8C177.122 195.245 177.378 194.685 177.549 194.12C177.73 193.544 177.821 192.941 177.821 192.312C177.821 191.704 177.725 191.171 177.533 190.712C177.351 190.243 177.095 189.859 176.765 189.56C176.445 189.251 176.055 189.021 175.597 188.872C175.149 188.712 174.653 188.632 174.109 188.632C173.586 188.632 173.101 188.707 172.653 188.856C172.215 189.005 171.821 189.213 171.469 189.48C171.127 189.747 170.839 190.067 170.605 190.44C170.381 190.803 170.215 191.203 170.109 191.64C169.949 192.077 169.741 192.371 169.485 192.52C169.239 192.669 168.877 192.701 168.397 192.616L166.589 192.296C166.749 191.208 167.047 190.253 167.485 189.432C167.933 188.611 168.493 187.928 169.165 187.384C169.837 186.829 170.605 186.413 171.469 186.136C172.343 185.848 173.287 185.704 174.301 185.704C175.325 185.704 176.263 185.859 177.117 186.168C177.981 186.467 178.722 186.899 179.341 187.464C179.97 188.019 180.461 188.696 180.812 189.496C181.164 190.296 181.34 191.197 181.34 192.2C181.34 193.053 181.213 193.843 180.957 194.568C180.711 195.293 180.375 195.987 179.949 196.648C179.522 197.309 179.021 197.955 178.445 198.584C177.879 199.203 177.282 199.832 176.653 200.472L171.085 206.168C171.543 206.04 172.002 205.939 172.461 205.864C172.93 205.789 173.373 205.752 173.789 205.752H180.557ZM189.535 194.472C190.09 194.355 190.618 194.269 191.119 194.216C191.631 194.163 192.122 194.136 192.591 194.136C193.796 194.136 194.858 194.317 195.775 194.68C196.703 195.032 197.476 195.523 198.095 196.152C198.724 196.781 199.194 197.523 199.503 198.376C199.823 199.219 199.983 200.136 199.983 201.128C199.983 202.355 199.77 203.469 199.343 204.472C198.916 205.475 198.324 206.333 197.567 207.048C196.81 207.752 195.914 208.296 194.879 208.68C193.855 209.064 192.746 209.256 191.551 209.256C190.847 209.256 190.175 209.187 189.535 209.048C188.906 208.909 188.314 208.723 187.759 208.488C187.204 208.243 186.692 207.965 186.223 207.656C185.754 207.336 185.332 207.005 184.959 206.664L186.015 205.192C186.239 204.872 186.538 204.712 186.911 204.712C187.146 204.712 187.402 204.797 187.679 204.968C187.956 205.139 188.276 205.325 188.639 205.528C189.012 205.72 189.45 205.901 189.951 206.072C190.452 206.243 191.05 206.328 191.743 206.328C192.5 206.328 193.178 206.205 193.775 205.96C194.372 205.715 194.874 205.373 195.279 204.936C195.695 204.488 196.01 203.955 196.223 203.336C196.436 202.717 196.543 202.04 196.543 201.304C196.543 200.632 196.442 200.029 196.239 199.496C196.047 198.963 195.754 198.509 195.359 198.136C194.975 197.763 194.49 197.48 193.903 197.288C193.316 197.085 192.639 196.984 191.871 196.984C191.306 196.984 190.724 197.032 190.127 197.128C189.54 197.224 188.943 197.373 188.335 197.576L186.191 196.968L188.079 185.96H199.231V187.448C199.231 187.939 199.076 188.339 198.767 188.648C198.458 188.957 197.94 189.112 197.215 189.112H190.463L189.535 194.472Z" fill="white"/>
</g>
<defs>
<clipPath id="clip0_205_469">
<rect width="133" height="69" fill="white" transform="translate(69 156)"/>
</clipPath>
</defs>
</svg>
